<svg width="100" height="106" viewBox="0 0 100 106" fill="none" xmlns="http://www.w3.org/2000/svg">
<rect x="36.5" y="0.5" width="5" height="5" stroke="white"/>
<rect x="58.5" y="0.5" width="5" height="5" stroke="white"/>
<rect x="47.5" y="20.5" width="5" height="5" stroke="white"/>
<rect x="34.5" y="60.5" width="5" height="5" stroke="white"/>
<rect x="28.5" y="76.5" width="5" height="5" stroke="white"/>
<rect x="66.5" y="76.5" width="5" height="5" stroke="white"/>
<rect x="94.5" y="100.5" width="5" height="5" stroke="white"/>
<rect x="75.5" y="100.5" width="5" height="5" stroke="white"/>
<rect x="19.5" y="100.5" width="5" height="5" stroke="white"/>
<rect x="0.5" y="100.5" width="5" height="5" stroke="white"/>
<rect x="60.5" y="60.5" width="5" height="5" stroke="white"/>
<path d="M61.4512 2.5L61.5703 2.83008L97.4102 102.23L97.6514 102.9H77.5459L77.4287 102.565L69.2852 79.3799H30.6543L22.5117 102.565L22.3945 102.9H2.28809L2.5293 102.23L38.3701 2.83008L38.4893 2.5H61.4512ZM36.3203 62.8398H63.6221L50.0371 22.8857L36.3203 62.8398Z" stroke="white"/>
</svg>
