<svg width="69" height="105" viewBox="0 0 69 105" fill="none" xmlns="http://www.w3.org/2000/svg">
<path d="M65.9805 2.5V72.5801C65.9805 82.3365 63.1547 90.0055 57.4492 95.5176L57.4463 95.5205C51.7487 100.928 44.1367 103.61 34.666 103.61C25.0965 103.61 17.2985 100.832 11.3203 95.2393L11.3174 95.2363C5.42102 89.6299 2.50002 81.8179 2.5 71.8701V71.3701H23.3691L23.3799 71.8594C23.473 76.0469 24.4473 79.2366 26.2441 81.4883C28.1185 83.7196 30.8059 84.8603 34.3818 84.8604C37.866 84.8604 40.4565 83.7653 42.2344 81.6318C44.0303 79.4765 44.958 76.4793 44.958 72.5801V2.5H65.9805Z" stroke="white"/>
<rect x="20.5" y="68.5" width="5" height="5" stroke="white"/>
<rect x="0.5" y="68.5" width="5" height="5" stroke="white"/>
<rect x="42.5" y="0.5" width="5" height="5" stroke="white"/>
<rect x="63.5" y="0.5" width="5" height="5" stroke="white"/>
</svg>
