<svg width="77" height="106" viewBox="0 0 77 106" fill="none" xmlns="http://www.w3.org/2000/svg">
<rect x="0.5" y="100.5" width="5" height="5" stroke="white"/>
<rect x="20.5" y="100.5" width="5" height="5" stroke="white"/>
<rect x="20.5" y="62.5" width="5" height="5" stroke="white"/>
<rect x="20.5" y="45.5" width="5" height="5" stroke="white"/>
<rect x="39.5" y="62.5" width="5" height="5" stroke="white"/>
<rect x="39.5" y="0.5" width="5" height="5" stroke="white"/>
<rect x="20.5" y="17.5" width="5" height="5" stroke="white"/>
<rect x="0.5" y="0.5" width="5" height="5" stroke="white"/>
<path d="M39.8584 2.5C47.6588 2.5 54.3355 3.84672 59.8701 6.5625C65.3954 9.27377 69.5376 13.0139 72.2705 17.7881C75.0929 22.552 76.5 27.9423 76.5 33.9453C76.5 39.3783 75.1878 44.4764 72.5654 49.2305C70.0249 54.0094 65.9781 57.8462 60.457 60.749L60.4561 60.748C55.0086 63.6624 48.1339 65.1045 39.8584 65.1045H23.5781V103.5H2.5V2.5H39.8584ZM23.5781 47.915H38.998C44.4763 47.915 48.4384 46.6884 50.9854 44.3301C53.5425 41.8667 54.8477 38.4277 54.8477 33.9453C54.8476 29.1669 53.5133 25.6702 50.9268 23.3584C48.3295 21.0371 44.3837 19.832 38.998 19.832H23.5781V47.915Z" stroke="white"/>
</svg>
