<svg width="113" height="113" viewBox="0 0 113 113" fill="none" xmlns="http://www.w3.org/2000/svg">
<ellipse cx="51.9185" cy="56" rx="20.9671" ry="21" fill="white"/>
<path d="M103.837 56C103.837 84.7188 80.5925 108 51.9186 108C23.2448 108 0 84.7188 0 56C0 27.2812 23.2448 4 51.9186 4C80.5925 4 103.837 27.2812 103.837 56ZM20.9589 56C20.9589 73.1254 34.8201 87.0082 51.9186 87.0082C69.0172 87.0082 82.8783 73.1254 82.8783 56C82.8783 38.8746 69.0172 24.9918 51.9186 24.9918C34.8201 24.9918 20.9589 38.8746 20.9589 56Z" fill="white"/>
<rect width="24.4903" height="20.8715" rx="3" transform="matrix(0.746272 0.665641 -0.664479 0.747307 94.7236 81.1008)" fill="white"/>
</svg>
