<svg viewBox="-1 -15 108 108" fill="none" xmlns="http://www.w3.org/2000/svg">
<path d="M66.5559 42.5C52.6856 50.8048 43.282 53.5434 23.5559 55C39.1412 70.4423 50.1378 75.7794 75.0559 77.5C88.2034 72.0647 95.6462 67.1539 105.556 57C90.3463 53.9905 81.0336 51.2581 66.5559 42.5Z" fill="white"/>
<path d="M17.5745 48.0016C5.94043 35.7661 -0.6817 7.37897 0.0557146 8.50004C0.793129 9.62111 22.5203 16.8397 40.5558 13.4998C44.8576 24.5772 50.2354 30.9245 61.0745 38.5016C49.6592 45.4026 39.4289 47.0781 17.5745 48.0016Z" fill="white"/>
<path d="M66.5559 35.5C55.7126 28.6914 51.1737 23.5368 45.5559 12C55.7038 8.68734 60.7684 5.94535 69.0559 0C73.8167 11.1719 77.8642 15.2222 86.5559 21.5C79.1876 27.4688 74.9087 31.0059 66.5559 35.5Z" fill="white"/>
</svg>
