<svg width="79" height="106" viewBox="0 0 79 106" fill="none" xmlns="http://www.w3.org/2000/svg">
<rect x="2.5" y="16.5" width="5" height="5" stroke="white"/>
<rect x="2.5" y="0.5" width="5" height="5" stroke="white"/>
<rect x="72.5" y="0.5" width="5" height="5" stroke="white"/>
<rect x="48.5" y="16.5" width="5" height="5" stroke="white"/>
<rect x="72.5" y="16.5" width="5" height="5" stroke="white"/>
<rect x="73.5" y="83.5" width="5" height="5" stroke="white"/>
<rect x="73.5" y="100.5" width="5" height="5" stroke="white"/>
<rect x="0.5" y="100.5" width="5" height="5" stroke="white"/>
<rect x="0.5" y="83.5" width="5" height="5" stroke="white"/>
<rect x="23.5" y="83.5" width="5" height="5" stroke="white"/>
<path d="M75.04 2.5V18.8438L74.9434 18.9756L25.6875 86.0801H76.7197V102.9H2.5V86.5576L2.5957 86.4258L51.4375 19.3203H4.59961V2.5H75.04Z" stroke="white"/>
</svg>
